<?xml version="1.0" encoding="UTF-8" standalone="no"?>
<svg height="96" viewBox="0 0 36 36" width="96" xmlns="http://www.w3.org/2000/svg">
<defs>
<linearGradient gradientTransform="matrix(.58147,-.58147,.58147,.58147,-5.21461,32.00115)" gradientUnits="userSpaceOnUse" id="linearGradient1375" x1="36.30431" x2="27.49359" y1="6.20608" y2="57.58787">
<stop offset="0" stop-color="#b3b3b3"/>
<stop offset="1" stop-color="#b3b3b3"/>
</linearGradient>
<linearGradient gradientTransform="matrix(.58147,-.58147,.58147,.58147,-5.20916,32.00000)" gradientUnits="userSpaceOnUse" id="linearGradient1377" x1="36.46384" x2="27.57399" y1="6.18295" y2="57.7894">
<stop offset="0"/>
<stop offset="1"/>
</linearGradient>
<linearGradient gradientTransform="matrix(.58147,-.58147,.58147,.58147,-5.21409,32.00000)" gradientUnits="userSpaceOnUse" id="linearGradient1379" x1="32.68295" x2="27.46896" y1="19.20601" y2="49.2824">
<stop offset="0" stop-color="#b3b3b3"/>
<stop offset="1" stop-color="#b3b3b3" stop-opacity=".44706"/>
</linearGradient>
</defs>
<g transform="translate(-14.00000,-14.00000)">
<path d="m14.50057,35.39208c.05084.54254.50871.95574 1.0536.95081h12.10357v12.10357c-.00131.27983.10927.54858.30714.74646s.46663.30846.74646.30714h6.57858c.27983.00131.54858-.10927.74646-.30714s.30846-.46663.30714-.74646v-12.10356h12.10356c.27983.00131.54858-.10927.74646-.30714s.30846-.46663.30714-.74646v-6.57858c.00131-.27983-.10927-.54858-.30714-.74646s-.46662-.30846-.74646-.30714h-12.10356v-12.10356c.00131-.27983-.10927-.54858-.30714-.74646s-.46663-.30846-.74646-.30714h-6.57858c-.27983-.00131-.54858.10927-.74646.30714s-.30846.46663-.30714.74646v12.10356h-12.10357c-.27983-.00131-.54858.10927-.74646.30714s-.30846.46663-.30714.74646v6.57858c-.00168.03424-.00168.06855 0,.10279z" fill="url(#linearGradient1375)"/>
<path d="m15.42976,28.87386c-.0867.14846-.12923.31858-.12259.49037v5.27153c.00234.49554.40348.89668.89902.89902h12.25937v12.25937c.00234.49554.40348.89668.89902.89902h5.27153c.49554-.00234.89668-.40348.89902-.89902v-12.25937h12.25937c.49554-.00234.89668-.40348.89902-.89902v-5.27153c-.00234-.49554-.40348-.89668-.89902-.89902h-12.25937v-12.25937c-.00234-.49554-.40348-.89668-.89902-.89902h-5.27153c-.49554.00234-.89668.40348-.89902.89902v12.25937h-12.25937c-.31203-.00707-.60559.14744-.77643.40865z" fill="url(#linearGradient1377)"/>
<path d="m15.98109,29.26207c-.01422.03214-.0212.06702-.02043.10216v5.27153c.00214.04384.01627.08624.04087.12259s.05841.07943.10216.10216c.03214.01422.06702.0212.10216.02043h12.50456c.11217-.00265.23188.02756.30648.10216s.10481.19431.10216.30648v12.50456c.00214.04384.01627.08624.04087.12259s.05841.07943.10216.10216c.03214.01422.06702.0212.10216.02043h5.27153c.04384-.00214.08624-.01627.12259-.04087s.07943-.05841.10216-.10216c.01422-.03214.0212-.06702.02043-.10216v-12.50456c-.00265-.11217.02756-.23188.10216-.30648s.19431-.10481.30648-.10216h12.50456c.04384-.00214.08624-.01627.12259-.04087s.07943-.05841.10216-.10216c.01422-.03214.0212-.06702.02043-.10216v-5.27153c-.00214-.04384-.01627-.08624-.04087-.12259s-.05841-.07943-.10216-.10216c-.03214-.01422-.06702-.0212-.10216-.02043h-12.50456c-.11217.00265-.23188-.02756-.30648-.10216s-.10481-.19431-.10216-.30648v-12.50456c-.00214-.04384-.01627-.08624-.04087-.12259s-.05841-.07943-.10216-.10216c-.03214-.01422-.06702-.0212-.10216-.02043h-5.27153c-.04384.00214-.08624.01627-.12259.04087s-.07943.05841-.10216.10216c-.01422.03214-.0212.06702-.02043.10216v12.50456c.00265.11217-.02756.23188-.10216.30648s-.19431.10481-.30648.10216h-12.50456c-.04384.00214-.08624.01627-.12259.04087s-.07943.05841-.10216.10216z" fill="url(#linearGradient1379)"/>
</g>
</svg>
