<?xml version="1.0" encoding="UTF-8" standalone="no"?>
<svg viewBox="0 0 208.91519 171.38075" xmlns="http://www.w3.org/2000/svg" xmlns:xlink="http://www.w3.org/1999/xlink">
<defs>
<linearGradient id="linearGradient3793-3">
<stop offset="0" stop-color="#fff"/>
<stop offset="1" stop-color="#fff" stop-opacity="0"/>
</linearGradient>
<linearGradient id="linearGradient3810-2">
<stop offset="0" stop-color="#2d404c"/>
<stop offset="1" stop-color="#2d404c" stop-opacity="0"/>
</linearGradient>
<linearGradient gradientUnits="userSpaceOnUse" id="linearGradient5408" x2="0" xlink:href="#linearGradient3793-3" y1="332.94186" y2="381.5643"/>
<linearGradient gradientTransform="matrix(.69926,.0339,0,.69926,132.70519,287.33642)" gradientUnits="userSpaceOnUse" id="linearGradient6031" x2="0" xlink:href="#linearGradient3810-2" y1="387.29968" y2="376.20435"/>
<linearGradient gradientTransform="matrix(.69926,.0339,0,.69926,100.93268,306.43634)" gradientUnits="userSpaceOnUse" id="linearGradient6041" x2="0" xlink:href="#linearGradient3810-2" y1="387.29968" y2="376.20435"/>
<linearGradient gradientUnits="userSpaceOnUse" id="linearGradient6044" x2="0" xlink:href="#linearGradient3793-3" y1="518.17908" y2="556.0173"/>
<linearGradient gradientTransform="matrix(.67046,.04464,0,.67046,223.46766,304.33467)" gradientUnits="userSpaceOnUse" id="linearGradient6048" x2="0" xlink:href="#linearGradient3810-2" y1="387.29968" y2="376.20435"/>
<linearGradient gradientTransform="matrix(.67046,.04464,0,.67046,193.00368,322.09656)" gradientUnits="userSpaceOnUse" id="linearGradient6058" x2="0" xlink:href="#linearGradient3810-2" y1="387.29968" y2="376.20435"/>
<linearGradient gradientUnits="userSpaceOnUse" id="linearGradient6061" x2="0" xlink:href="#linearGradient3793-3" y1="516.96068" y2="553.24056"/>
<linearGradient gradientTransform="matrix(.67046,.04464,0,.67046,308.71352,311.84294)" gradientUnits="userSpaceOnUse" id="linearGradient6065" x2="0" xlink:href="#linearGradient3810-2" y1="387.29968" y2="376.20435"/>
<linearGradient gradientTransform="matrix(.67046,.04464,0,.67046,278.24954,329.60483)" gradientUnits="userSpaceOnUse" id="linearGradient6075" x2="0" xlink:href="#linearGradient3810-2" y1="387.29968" y2="376.20435"/>
<linearGradient gradientUnits="userSpaceOnUse" id="linearGradient6078" x2="0" xlink:href="#linearGradient3793-3" y1="518.79366" y2="555.07354"/>
<linearGradient gradientTransform="matrix(.55272,.02895,0,.55272,260.67959,307.73616)" gradientUnits="userSpaceOnUse" id="linearGradient6082" x2="0" xlink:href="#linearGradient3810-2" y1="387.29968" y2="376.20435"/>
<linearGradient gradientTransform="matrix(.55272,.02895,0,.55272,235.5654,322.73543)" gradientUnits="userSpaceOnUse" id="linearGradient6092" x2="0" xlink:href="#linearGradient3810-2" y1="387.29968" y2="376.20435"/>
<linearGradient gradientUnits="userSpaceOnUse" id="linearGradient6095" x2="0" xlink:href="#linearGradient3793-3" y1="481.63373" y2="511.54248"/>
<linearGradient gradientTransform="matrix(1.07509,.13391,0,1.07509,105.60926,189.42461)" gradientUnits="userSpaceOnUse" id="linearGradient6099" x2="0" xlink:href="#linearGradient3810-2" y1="387.29968" y2="376.20435"/>
<linearGradient gradientTransform="matrix(1.07509,.13391,0,1.07509,56.7599,215.07371)" gradientUnits="userSpaceOnUse" id="linearGradient6109" x2="0" xlink:href="#linearGradient3810-2" y1="387.29968" y2="376.20435"/>
<linearGradient gradientUnits="userSpaceOnUse" id="linearGradient6112" x2="0" xlink:href="#linearGradient3793-3" y1="541.075" y2="599.25023"/>
</defs>
<g transform="translate(-298.39955,-518.10037)">
<path d="m506.57492,596.06412c3.0655,8.48556-3.6607,15.06099-15.2714,14.32558-.867,30.19627-28.2911,57.51556-72.4659,63.10541-4.82,10.12062-15.7749,17.01299-28.15179,15.86032-12.3649-1.15156-21.4481-9.8963-23.7913-20.66043-41.6094-13.4754-61.79401-44.97935-55.6402-74.48758-11.02981-1.48543-15.80131-8.92842-10.98171-16.52317 4.4852-7.06803 15.80591-11.77525 25.89541-11.24824 15.5602-16.65565 40.7843-26.46341 66.4178-27.57045 1.2098-4.50609 8.54139-7.39863 16.63859-6.69464s14.6218,4.80531 14.7559,9.43408c24.9527,5.53084 47.5624,19.56971 59.0571,38.69942 10.2873,1.13145 20.6892,7.87582 23.5375,15.7597m-6.1743-.55006c-1.9073-5.71219-9.3379-10.56444-16.886-11.23406-7.5437-.66923-12.6413,3.06708-11.4774,8.7071 1.2282,5.95109 8.8349,11.49752 17.1433,12.24118 .5194.0465 1.0273.0685 1.5215.0755 7.3923.0934 11.5824-4.14815 9.6988-9.7893l-.0002-.00045m-15.8715,13.66247c-8.1544-2.39853-15.0493-7.77266-17.6811-13.67529l-44.3274-3.95434c-2.0215,6.47213-10.0953,11.14245-19.8353,10.86185l-3.7567,34.09161c12.8034,2.07665 22.7886,13.03856 22.506,26.33892-.012.5783-.091,1.14292-.1408,1.7131 37.6451-5.93725 61.4011-29.14629 63.2353-55.37585m-7.106-28.90742c-10.3359-17.65372-30.9803-30.71591-54.1072-36.00334-2.0022,3.62135-8.2233,5.99283-15.5622,5.50515l-2.7037,23.62684c9.4571,1.06657 17.0529,6.81082 17.8786,13.73183l42.7965,3.81036c-.2265-5.80755 4.5764-9.89028 11.698-10.67084m-64.2749,81.80793c.5012-9.94664-7.036-18.07521-17.00589-18.98554-9.9621-.90961-19.216,5.67514-21.0429,15.48553-1.9641,10.54591 5.3554,20.31989 16.6959,21.37184 11.35039,1.05287 20.81409-7.17832 21.35289-17.87183m3.7289-74.00426c.2772-5.50007-5.4641-10.1892-12.9656-10.85469s-14.20329,2.9153-15.21419,8.34409c-1.0667,5.72721 4.584,11.08236 12.83599,11.82097 8.2571.73909 15.0515-3.50761 15.3438-9.31037m2.3497-46.63145c.1691-3.35594-4.3847-6.32853-10.2887-6.84239s-11.04999,1.61233-11.66719,4.92634c-.6434,3.45508 3.86629,6.74201 10.22539,7.29853s11.5542-1.88356 11.7305-5.38248m-27.93829,94.87097 4.8735-34.87009c-8.5426-2.32318-14.1265-8.33273-13.7884-14.74633l-42.7782-3.81403c-3.5981,5.98814-12.3072,10.61613-21.5793,11.45694-4.2383,25.81204 13.3953,52.64251 48.5546,65.22715 .085-.58249.1459-1.16482.2721-1.74841 2.5602-11.84414 12.9295-20.25231 24.4457-21.50523m7.96449-62.96744 3.5092-24.36599c-5.39099-1.38108-9.23979-4.22376-10.14719-7.39526-23.7597,1.17575-46.8448,10.33179-60.958,25.70095 6.4822,1.79597 10.2832,6.15118 9.519,11.35058l42.3529,3.76883c2.4788-4.96028 8.6188-8.38735 15.72409-9.05911m-64.90249,7.37545c2.4219-5.2917-1.66-9.82053-9.1155-10.48194-7.4513-.66103-15.7372,2.76617-18.88381,7.98744-3.319,5.50735.4124,10.67469 8.60871,11.40834s16.8357-3.33188 19.3906-8.91384" fill="#486a83"/>
<path d="m386.34964,588.29663h19.50117a6.6358,6.58492 0 0,1 6.6358,6.58492v19.35163a6.6358,6.58492 0 0,1 -6.6358,6.58492h-19.50117a6.6358,6.58492 0 0,1 -6.6358-6.58492v-19.35163a6.6358,6.58492 0 0,1 6.6358-6.58492" fill="#2f4e62" transform="matrix(.99233,.1236,0,1,0,0)"/>
<path d="m385.33079,589.30365h21.53881a3.85646,4.77159 0 0,1 3.85646,4.77159 3.85646,4.77159 0 0,1 -3.85646,4.77159h-21.53881a3.85646,4.77159 0 0,1 -3.85646-4.77159 3.85646,4.77159 0 0,1 3.85646-4.77159" fill="url(#linearGradient6112)" transform="matrix(.99233,.1236,0,1,0,0)"/>
<path d="m376.80221,659.04951v2.11659c0,3.64805 2.93688,6.95073 6.58493,7.40511l19.35162,2.41036c3.64805.45439 6.58492-2.11669 6.58492-5.76473v-2.11659c0,3.64805-2.93687,6.21912-6.58492,5.76474l-19.35162-2.41036c-3.64805-.45438-6.58493-3.75707-6.58493-7.40512z" fill="url(#linearGradient6109)"/>
<path d="m275.75,375.11218a8.5,8.5 0 1,1 -17,0 8.5,8.5 0 1,1 17,0z" fill="#2f4e62" transform="matrix(1.07509,.13391,0,1.07509,105.60926,189.42461)"/>
<path d="m275.75,375.11218a8.5,8.5 0 1,1 -17,0 8.5,8.5 0 1,1 17,0z" fill="url(#linearGradient5408)" transform="matrix(.79051,.09846,0,.56126,181.66397,387.87864)"/>
<path d="m383.82237,626.90041c-.008.15502-.0335.30826-.0335.46618 0,5.04692 4.09134,9.64786 9.13826,10.27648s9.13826-2.95311 9.13826-8.00004c0-.15792-.0257-.3176-.0335-.47453-.25371,4.78836-4.22151,8.1421-9.10467,7.53388s-8.85095-4.95039-9.10466-9.80196z" fill="url(#linearGradient6099)"/>
<path d="m275.75,375.11218a8.5,8.5 0 1,1 -17,0 8.5,8.5 0 1,1 17,0z" fill="#2f4e62" transform="matrix(1.07509,.13391,0,1.07509,105.60926,189.42461)"/>
<path d="m275.75,375.11218a8.5,8.5 0 1,1 -17,0 8.5,8.5 0 1,1 17,0z" fill="url(#linearGradient5408)" transform="matrix(.79051,.09846,0,.56126,181.66397,387.87864)"/>
<path d="m383.82237,626.90041c-.008.15502-.0335.30826-.0335.46618 0,5.04692 4.09134,9.64786 9.13826,10.27648s9.13826-2.95311 9.13826-8.00004c0-.15792-.0257-.3176-.0335-.47453-.25371,4.78836-4.22151,8.1421-9.10467,7.53388s-8.85095-4.95039-9.10466-9.80196z" fill="url(#linearGradient6099)"/>
<path d="m404.04242,505.91107h9.9626a3.39005,3.3854 0 0,1 3.39005,3.3854v9.94896a3.39005,3.3854 0 0,1 -3.39005,3.3854h-9.9626a3.39005,3.3854 0 0,1 -3.39005-3.3854v-9.94896a3.39005,3.3854 0 0,1 3.39005-3.3854" fill="#2f4e62" transform="matrix(.99863,.05231,0,1,0,0)"/>
<path d="m403.52192,506.42877h11.00358a1.97016,2.45314 0 0,1 1.97016,2.45314 1.97016,2.45314 0 0,1 -1.97016,2.45314h-11.00358a1.97016,2.45314 0 0,1 -1.97016-2.45314 1.97016,2.45314 0 0,1 1.97016-2.45314" fill="url(#linearGradient6095)" transform="matrix(.99863,.05231,0,1,0,0)"/>
<path d="m400.10391,539.11398v1.08816c0,1.87552 1.5099,3.4645 3.38541,3.56273l9.94896.52111c1.87551.0982 3.38541-1.33257 3.38541-3.20809v-1.08816c0,1.87551-1.5099,3.30632-3.38541,3.20808l-9.94896-.52111c-1.87551-.0982-3.38541-1.68721-3.38541-3.56272z" fill="url(#linearGradient6092)"/>
<path d="m275.75,375.11218a8.5,8.5 0 1,1 -17,0 8.5,8.5 0 1,1 17,0z" fill="#2f4e62" transform="matrix(.55272,.02895,0,.55272,260.67959,307.73616)"/>
<path d="m275.75,375.11218a8.5,8.5 0 1,1 -17,0 8.5,8.5 0 1,1 17,0z" fill="url(#linearGradient5408)" transform="matrix(.40641,.02129,0,.28855,299.78044,406.94211)"/>
<path d="m403.71308,522.32514c-.004.08-.0172.15972-.0172.24091 0,2.5947 2.10341,4.80829 4.69811,4.9442s4.69812-1.85734 4.69812-4.45204c0-.0812-.0132-.16233-.0172-.24272-.13044,2.47118-2.17035,4.34263-4.68085,4.21113s-4.55041-2.21663-4.68084-4.70147z" fill="url(#linearGradient6082)"/>
<path d="m275.75,375.11218a8.5,8.5 0 1,1 -17,0 8.5,8.5 0 1,1 17,0z" fill="#2f4e62" transform="matrix(.55272,.02895,0,.55272,260.67959,307.73616)"/>
<path d="m275.75,375.11218a8.5,8.5 0 1,1 -17,0 8.5,8.5 0 1,1 17,0z" fill="url(#linearGradient5408)" transform="matrix(.40641,.02129,0,.28855,299.78044,406.94211)"/>
<path d="m403.71308,522.32514c-.004.08-.0172.15972-.0172.24091 0,2.5947 2.10341,4.80829 4.69811,4.9442s4.69812-1.85734 4.69812-4.45204c0-.0812-.0132-.16233-.0172-.24272-.13044,2.47118-2.17035,4.34263-4.68085,4.21113s-4.55041-2.21663-4.68084-4.70147z" fill="url(#linearGradient6082)"/>
<path d="m483.01128,548.24255h12.09499a4.11565,4.10656 0 0,1 4.11565,4.10656v12.06828a4.11565,4.10656 0 0,1 -4.11565,4.10656h-12.09499a4.11565,4.10656 0 0,1 -4.11565-4.10656v-12.06828a4.11565,4.10656 0 0,1 4.11565-4.10656" fill="#2f4e62" transform="matrix(.99779,.06643,0,1,0,0)"/>
<path d="m482.3794,548.87054h13.35878a2.39185,2.97571 0 0,1 2.39185,2.97571 2.39185,2.97571 0 0,1 -2.39185,2.97571h-13.35878a2.39185,2.97571 0 0,1 -2.39185-2.97571 2.39185,2.97571 0 0,1 2.39185-2.97571" fill="url(#linearGradient6078)" transform="matrix(.99779,.06643,0,1,0,0)"/>
<path d="m477.83786,594.90974v1.31996c0,2.27504 1.83152,4.2285 4.10656,4.37996l12.06827.80346c2.27504.15146 4.10656-1.55814 4.10656-3.83317v-1.31997c0,2.27504-1.83152,3.98463-4.10656,3.83317l-12.06827-.80345c-2.27504-.15147-4.10656-2.10493-4.10656-4.37996z" fill="url(#linearGradient6075)"/>
<path d="m275.75,375.11218a8.5,8.5 0 1,1 -17,0 8.5,8.5 0 1,1 17,0z" fill="#2f4e62" transform="matrix(.67046,.04464,0,.67046,308.71352,311.84294)"/>
<path d="m275.75,375.11218a8.5,8.5 0 1,1 -17,0 8.5,8.5 0 1,1 17,0z" fill="url(#linearGradient5408)" transform="matrix(.49298,.03282,0,.35002,356.14359,432.85503)"/>
<path d="m482.21584,574.60672c-.005.0969-.0209.19345-.0209.29193 0,3.14742 2.55149,5.86878 5.69891,6.07832s5.6989-2.17208 5.6989-5.3195c0-.0985-.016-.19714-.0209-.29472-.15823,2.99534-2.63267,5.23031-5.67796,5.02757s-5.51973-2.76718-5.67795-5.7836z" fill="url(#linearGradient6065)"/>
<path d="m275.75,375.11218a8.5,8.5 0 1,1 -17,0 8.5,8.5 0 1,1 17,0z" fill="#2f4e62" transform="matrix(.67046,.04464,0,.67046,308.71352,311.84294)"/>
<path d="m275.75,375.11218a8.5,8.5 0 1,1 -17,0 8.5,8.5 0 1,1 17,0z" fill="url(#linearGradient5408)" transform="matrix(.49298,.03282,0,.35002,356.14359,432.85503)"/>
<path d="m482.21584,574.60672c-.005.0969-.0209.19345-.0209.29193 0,3.14742 2.55149,5.86878 5.69891,6.07832s5.6989-2.17208 5.6989-5.3195c0-.0985-.016-.19714-.0209-.29472-.15823,2.99534-2.63267,5.23031-5.67796,5.02757s-5.51973-2.76718-5.67795-5.7836z" fill="url(#linearGradient6065)"/>
<path d="m397.57671,546.40955h12.09499a4.11565,4.10656 0 0,1 4.11565,4.10656v12.06828a4.11565,4.10656 0 0,1 -4.11565,4.10656h-12.09499a4.11565,4.10656 0 0,1 -4.11565-4.10656v-12.06828a4.11565,4.10656 0 0,1 4.11565-4.10656" fill="#2f4e62" transform="matrix(.99779,.06643,0,1,0,0)"/>
<path d="m396.94483,547.03754h13.35878a2.39185,2.97571 0 0,1 2.39185,2.97571 2.39185,2.97571 0 0,1 -2.39185,2.97571h-13.35878a2.39185,2.97571 0 0,1 -2.39185-2.97571 2.39185,2.97571 0 0,1 2.39185-2.97571" fill="url(#linearGradient6061)" transform="matrix(.99779,.06643,0,1,0,0)"/>
<path d="m392.592,587.40147v1.31996c0,2.27504 1.83152,4.2285 4.10656,4.37996l12.06827.80346c2.27504.15146 4.10656-1.55814 4.10656-3.83317v-1.31997c0,2.27504-1.83152,3.98463-4.10656,3.83317l-12.06827-.80345c-2.27504-.15147-4.10656-2.10493-4.10656-4.37996z" fill="url(#linearGradient6058)"/>
<path d="m275.75,375.11218a8.5,8.5 0 1,1 -17,0 8.5,8.5 0 1,1 17,0z" fill="#2f4e62" transform="matrix(.67046,.04464,0,.67046,223.46766,304.33467)"/>
<path d="m275.75,375.11218a8.5,8.5 0 1,1 -17,0 8.5,8.5 0 1,1 17,0z" fill="url(#linearGradient5408)" transform="matrix(.49298,.03282,0,.35002,270.89773,425.34676)"/>
<path d="m396.96998,567.09845c-.005.0969-.0209.19345-.0209.29193 0,3.14742 2.55149,5.86878 5.69891,6.07832s5.6989-2.17208 5.6989-5.3195c0-.0985-.016-.19714-.0209-.29472-.15823,2.99534-2.63267,5.23031-5.67796,5.02757s-5.51973-2.76718-5.67795-5.7836z" fill="url(#linearGradient6048)"/>
<path d="m275.75,375.11218a8.5,8.5 0 1,1 -17,0 8.5,8.5 0 1,1 17,0z" fill="#2f4e62" transform="matrix(.67046,.04464,0,.67046,223.46766,304.33467)"/>
<path d="m275.75,375.11218a8.5,8.5 0 1,1 -17,0 8.5,8.5 0 1,1 17,0z" fill="url(#linearGradient5408)" transform="matrix(.49298,.03282,0,.35002,270.89773,425.34676)"/>
<path d="m396.96998,567.09845c-.005.0969-.0209.19345-.0209.29193 0,3.14742 2.55149,5.86878 5.69891,6.07832s5.6989-2.17208 5.6989-5.3195c0-.0985-.016-.19714-.0209-.29472-.15823,2.99534-2.63267,5.23031-5.67796,5.02757s-5.51973-2.76718-5.67795-5.7836z" fill="url(#linearGradient6048)"/>
<path d="m313.74489,548.89288h12.60143a4.28798,4.28295 0 0,1 4.28798,4.28295v12.58665a4.28798,4.28295 0 0,1 -4.28798,4.28295h-12.60143a4.28798,4.28295 0 0,1 -4.28798-4.28295v-12.58665a4.28798,4.28295 0 0,1 4.28798-4.28295" fill="#2f4e62" transform="matrix(.99883,.04842,0,1,0,0)"/>
<path d="m313.08654,549.54785h13.91813a2.492,3.10353 0 0,1 2.492,3.10353 2.492,3.10353 0 0,1 -2.492,3.10353h-13.91813a2.492,3.10353 0 0,1 -2.492-3.10353 2.492,3.10353 0 0,1 2.492-3.10353" fill="url(#linearGradient6044)" transform="matrix(.99883,.04842,0,1,0,0)"/>
<path d="m309.09399,579.36914v1.37667c0,2.37275 1.9102,4.37555 4.28296,4.49057l12.58664.61013c2.37276.11502 4.28295-1.70258 4.28295-4.07533v-1.37667c0,2.37276-1.91019,4.19036-4.28295,4.07534l-12.58664-.61014c-2.37276-.11502-4.28296-2.11781-4.28296-4.49057z" fill="url(#linearGradient6041)"/>
<path d="m275.75,375.11218a8.5,8.5 0 1,1 -17,0 8.5,8.5 0 1,1 17,0z" fill="#2f4e62" transform="matrix(.69926,.0339,0,.69926,132.70519,287.33642)"/>
<path d="m275.75,375.11218a8.5,8.5 0 1,1 -17,0 8.5,8.5 0 1,1 17,0z" fill="url(#linearGradient5408)" transform="matrix(.51416,.02492,0,.36505,182.17255,412.651)"/>
<path d="m313.66003,558.1114c-.005.10119-.0218.20215-.0218.30487 0,3.28261 2.66108,6.07268 5.94369,6.23181s5.9437-2.37296 5.9437-5.65557c0-.10272-.0167-.20531-.0218-.30699-.16502,3.12699-2.74575,5.50467-5.92184,5.35071s-5.75682-2.78184-5.92184-5.92483z" fill="url(#linearGradient6031)"/>
<path d="m275.75,375.11218a8.5,8.5 0 1,1 -17,0 8.5,8.5 0 1,1 17,0z" fill="#2f4e62" transform="matrix(.69926,.0339,0,.69926,132.70519,287.33642)"/>
<path d="m275.75,375.11218a8.5,8.5 0 1,1 -17,0 8.5,8.5 0 1,1 17,0z" fill="url(#linearGradient5408)" transform="matrix(.51416,.02492,0,.36505,182.17255,412.651)"/>
<path d="m313.66003,558.1114c-.005.10119-.0218.20215-.0218.30487 0,3.28261 2.66108,6.07268 5.94369,6.23181s5.9437-2.37296 5.9437-5.65557c0-.10272-.0167-.20531-.0218-.30699-.16502,3.12699-2.74575,5.50467-5.92184,5.35071s-5.75682-2.78184-5.92184-5.92483z" fill="url(#linearGradient6031)"/>
</g>
</svg>
