<svg xmlns="http://www.w3.org/2000/svg" xmlns:svg="http://www.w3.org/2000/svg" xmlns:xlink="http://www.w3.org/1999/xlink" height="320.00000" id="svg3235" version="1.0" width="320.00000" x="0.00000000" y="0.00000000">
  <defs id="defs3237">
    <linearGradient id="linearGradient3000">
      <stop id="stop3001" offset="0.00000000" style="stop-color:#000000;stop-opacity:0.39215687;"/>
      <stop id="stop3002" offset="1.0000000" style="stop-color:#000000;stop-opacity:0.00000000;"/>
    </linearGradient>
    <linearGradient id="linearGradient2991">
      <stop id="stop2992" offset="0.00000000" style="stop-color:#fff700;stop-opacity:1.0000000;"/>
      <stop id="stop2993" offset="1.0000000" style="stop-color:#ff8e00;stop-opacity:1.0000000;"/>
    </linearGradient>
    <linearGradient id="linearGradient2979">
      <stop id="stop2980" offset="0.00000000" style="stop-color:#dee5f4;stop-opacity:1.0000000;"/>
      <stop id="stop2981" offset="1.0000000" style="stop-color:#747a92;stop-opacity:1.0000000;"/>
    </linearGradient>
    <linearGradient id="linearGradient2984">
      <stop id="stop2985" offset="0.00000000" style="stop-color:#ffffff;stop-opacity:1.0000000;"/>
      <stop id="stop2986" offset="1.0000000" style="stop-color:#ffffff;stop-opacity:0.00000000;"/>
    </linearGradient>
    <linearGradient gradientTransform="scale(1.306617,0.765335)" gradientUnits="userSpaceOnUse" id="linearGradient1871" x1="59.820393" x2="61.891071" xlink:href="#linearGradient2984" y1="85.529762" y2="199.20726"/>
    <radialGradient cx="48.594395" cy="1101.0496" fx="48.594395" fy="1101.0496" gradientTransform="scale(2.157585,0.463481)" gradientUnits="userSpaceOnUse" id="radialGradient1908" r="31.845842" xlink:href="#linearGradient3000"/>
    <linearGradient gradientTransform="scale(0.977355,1.023170)" gradientUnits="userSpaceOnUse" id="linearGradient1917" x1="216.47505" x2="171.14700" xlink:href="#linearGradient2979" y1="198.10153" y2="73.230858"/>
    <linearGradient gradientTransform="scale(0.816232,1.225143)" gradientUnits="userSpaceOnUse" id="linearGradient1918" x1="146.52391" x2="139.02554" xlink:href="#linearGradient3000" y1="200.60095" y2="76.863205"/>
    <linearGradient gradientTransform="matrix(0.877312,0.000000,0.000000,1.354090,-9.949676,-15.93499)" gradientUnits="userSpaceOnUse" id="linearGradient1919" x1="146.52391" x2="139.02554" xlink:href="#linearGradient3000" y1="200.60095" y2="76.863205"/>
    <linearGradient gradientTransform="scale(0.847717,1.179639)" gradientUnits="userSpaceOnUse" id="linearGradient1920" x1="233.42126" x2="231.59184" xlink:href="#linearGradient2984" y1="50.769344" y2="147.83969"/>
    <linearGradient gradientTransform="scale(1.598277,0.625674)" gradientUnits="userSpaceOnUse" id="linearGradient1921" x1="122.32335" x2="123.69710" xlink:href="#linearGradient2979" y1="128.38135" y2="160.49329"/>
    <linearGradient gradientTransform="scale(1.606578,0.622441)" gradientUnits="userSpaceOnUse" id="linearGradient1922" x1="121.56956" x2="122.92260" xlink:href="#linearGradient2979" y1="158.70644" y2="190.33418"/>
    <linearGradient gradientTransform="scale(0.768115,1.301889)" gradientUnits="userSpaceOnUse" id="linearGradient1923" x1="271.47650" x2="256.74417" xlink:href="#linearGradient3000" y1="166.56679" y2="125.26250"/>
    <radialGradient cx="75.537109" cy="1017.3969" fx="75.537109" fy="1017.3969" gradientTransform="scale(1.907187,0.524332)" gradientUnits="userSpaceOnUse" id="radialGradient1955" r="48.549095" xlink:href="#linearGradient3000"/>
    <linearGradient gradientTransform="scale(1.905684,0.524746)" gradientUnits="userSpaceOnUse" id="linearGradient1956" x1="80.622375" x2="112.30373" xlink:href="#linearGradient2991" y1="1007.7199" y2="1007.7199"/>
    <linearGradient gradientTransform="scale(1.905684,0.524746)" gradientUnits="userSpaceOnUse" id="linearGradient1957" x1="111.28992" x2="89.493149" xlink:href="#linearGradient2979" y1="991.43304" y2="1019.9909"/>
    <linearGradient gradientTransform="scale(1.929020,0.518398)" gradientUnits="userSpaceOnUse" id="linearGradient1958" x1="97.777306" x2="91.326256" xlink:href="#linearGradient2991" y1="1036.9353" y2="1005.4645"/>
    <linearGradient gradientTransform="scale(1.781362,0.561368)" gradientUnits="userSpaceOnUse" id="linearGradient1959" x1="95.445160" x2="65.910606" xlink:href="#linearGradient2979" y1="438.16623" y2="390.88043"/>
    <linearGradient gradientTransform="scale(1.964736,0.508974)" gradientUnits="userSpaceOnUse" id="linearGradient1960" x1="52.588963" x2="87.982124" xlink:href="#linearGradient2984" y1="404.27759" y2="522.29510"/>
    <linearGradient gradientTransform="scale(1.337132,0.747869)" gradientUnits="userSpaceOnUse" id="linearGradient1961" x1="177.20853" x2="180.98833" xlink:href="#linearGradient2979" y1="270.24692" y2="298.52386"/>
    <linearGradient gradientTransform="scale(1.369306,0.730297)" gradientUnits="userSpaceOnUse" id="linearGradient1962" x1="129.28658" x2="129.54399" xlink:href="#linearGradient2984" y1="704.06665" y2="716.89569"/>
    <radialGradient cx="48.594395" cy="1101.0496" fx="48.594395" fy="1101.0496" gradientTransform="scale(2.157585,0.463481)" gradientUnits="userSpaceOnUse" id="radialGradient1971" r="31.845842" xlink:href="#linearGradient3000"/>
    <linearGradient gradientUnits="userSpaceOnUse" id="linearGradient1981" x1="85.997665" x2="79.453842" xlink:href="#linearGradient2979" y1="210.65846" y2="172.33038"/>
    <linearGradient gradientTransform="matrix(1.015953,0.000000,0.000000,0.984297,-1.875000,0.625000)" gradientUnits="userSpaceOnUse" id="linearGradient1982" x1="79.259674" x2="69.298241" xlink:href="#linearGradient2979" y1="176.59102" y2="79.391563"/>
    <linearGradient gradientTransform="scale(1.015805,0.984440)" gradientUnits="userSpaceOnUse" id="linearGradient1983" x1="131.51102" x2="99.187386" xlink:href="#linearGradient2979" y1="65.556458" y2="100.41222"/>
    <linearGradient gradientTransform="scale(1.015953,0.984297)" gradientUnits="userSpaceOnUse" id="linearGradient1984" x1="79.259674" x2="69.298241" xlink:href="#linearGradient2979" y1="176.59102" y2="79.391563"/>
    <linearGradient gradientTransform="scale(1.046727,0.955359)" gradientUnits="userSpaceOnUse" id="linearGradient1985" x1="52.874111" x2="48.997128" xlink:href="#linearGradient2991" y1="167.85587" y2="77.001305"/>
    <linearGradient gradientTransform="scale(2.284372,0.437757)" gradientUnits="userSpaceOnUse" id="linearGradient1986" x1="44.634335" x2="39.178116" xlink:href="#linearGradient2984" y1="462.63409" y2="437.71384"/>
    <linearGradient gradientTransform="matrix(1.350628,0.000000,0.000000,0.811804,-29.70751,-1.423843)" gradientUnits="userSpaceOnUse" id="linearGradient1992" x1="-71.758919" x2="262.79605" xlink:href="#linearGradient2979" y1="505.53708" y2="-90.461502"/>
    <linearGradient gradientTransform="scale(1.289859,0.775278)" gradientUnits="userSpaceOnUse" id="linearGradient1994" x1="203.06593" x2="-95.652382" xlink:href="#linearGradient2984" y1="-290.19931" y2="637.12531"/>
  </defs>
  <path d="M 173.55663,510.31580 C 173.56456,518.46870 142.79968,525.07883 104.84653,525.07883 C 66.893375,525.07883 36.128491,518.46870 36.136421,510.31580 C 36.128491,502.16290 66.893375,495.55277 104.84653,495.55277 C 142.79968,495.55277 173.56456,502.16290 173.55663,510.31580 L 173.55663,510.31580 z " id="path2998" style="fill:url(#radialGradient1971);fill-opacity:1.0000000;fill-rule:evenodd;stroke:none;stroke-width:0.37295571;stroke-linecap:butt;stroke-linejoin:miter;stroke-miterlimit:4.0000000;stroke-opacity:1.0000000" transform="matrix(0.940119,-0.124165,0.376587,0.821327,-213.4198,-213.7047)"/>
  <path d="M 173.55663,510.31580 C 173.56456,518.46870 142.79968,525.07883 104.84653,525.07883 C 66.893375,525.07883 36.128491,518.46870 36.136421,510.31580 C 36.128491,502.16290 66.893375,495.55277 104.84653,495.55277 C 142.79968,495.55277 173.56456,502.16290 173.55663,510.31580 L 173.55663,510.31580 z " id="path3009" style="fill:url(#radialGradient1908);fill-opacity:1.0000000;fill-rule:evenodd;stroke:none;stroke-width:0.19681364;stroke-linecap:butt;stroke-linejoin:miter;stroke-miterlimit:4.0000000;stroke-opacity:1.0000000" transform="matrix(1.711735,0.102817,-0.102817,1.711735,-8.017553,-689.7307)"/>
  <g id="g1942" transform="translate(0.000000,-75.00000)">
    <path d="M 223.80016,284.71299 C 212.28747,283.75360 204.61235,288.31068 194.05907,288.07085 C 183.50578,287.83100 173.27230,285.35258 160.48045,285.19268 C 147.68860,285.03279 141.13277,292.94773 119.22670,288.55054 C 114.10756,287.52298 134.17719,281.27517 129.77997,277.03787 C 125.38276,272.80056 102.27747,273.12036 89.005900,264.08610 C 83.433558,260.29287 100.51859,256.25107 101.47798,248.25617" id="path1941" style="fill:none;fill-opacity:0.75000000;fill-rule:evenodd;stroke:#000000;stroke-width:1.8750000;stroke-linecap:butt;stroke-linejoin:round;stroke-miterlimit:4.0000000;stroke-opacity:0.19607843"/>
    <path d="M 81.810480,305.81956 C 74.135374,302.78150 51.676082,297.00609 49.670926,293.82719 C 46.393013,288.63050 80.370666,292.60446 61.663298,283.27390 C 53.558269,279.23140 22.328324,281.11526 27.604963,277.51755 C 32.881619,273.91984 79.176877,270.35622 90.609600,265.07958 C 102.04233,259.80295 96.259524,250.45596 99.593287,242.46575" id="path1940" style="fill:none;fill-opacity:0.75000000;fill-rule:evenodd;stroke:#000000;stroke-width:1.8750000;stroke-linecap:butt;stroke-linejoin:round;stroke-miterlimit:4.0000000;stroke-opacity:0.19607843"/>
    <path d="M 236.65561,533.45416 C 236.65561,547.51305 195.20067,558.91002 144.06340,558.91002 C 92.926135,558.91002 51.471191,547.51305 51.471191,533.45416 C 51.471191,519.39527 92.926135,507.99830 144.06340,507.99830 C 195.20067,507.99830 236.65561,519.39527 236.65561,533.45416 z " id="path3228" style="fill:url(#radialGradient1955);fill-opacity:1.0000000;fill-rule:evenodd;stroke:none;stroke-width:0.25180706;stroke-linecap:butt;stroke-linejoin:miter;stroke-miterlimit:4.0000000;stroke-opacity:1.0000000" transform="matrix(1.606958,-0.180571,0.108339,1.105737,-118.8948,-254.5933)"/>
    <path d="M 187.37500,521.03125 L 154.18750,525.37500 L 180.37500,536.56250 L 213.46875,528.84375 L 187.37500,521.03125 z " id="path3141" style="fill:url(#linearGradient1956);fill-opacity:1;fill-rule:evenodd;stroke:url(#linearGradient1957);stroke-width:1.0934091;stroke-linecap:round;stroke-linejoin:bevel;stroke-miterlimit:4.0000000;stroke-opacity:1.0000000" transform="matrix(1.714820,0.000000,0.000000,1.714820,-61.76929,-610.3221)"/>
    <path d="M 187.37500,521.03125 L 154.18750,525.37500 L 180.37500,536.56250 L 213.46875,528.84375 L 187.37500,521.03125 z " id="path3140" style="fill:url(#linearGradient1958);fill-opacity:1.0000000;fill-rule:evenodd;stroke:#000000;stroke-width:0.54670453;stroke-linecap:round;stroke-linejoin:bevel;stroke-miterlimit:4.0000000;stroke-opacity:1.0000000" transform="matrix(1.714820,0.000000,0.000000,1.714820,-61.76929,-611.7310)"/>
    <path d="M 225.56792,208.82911 C 214.05523,207.86972 206.38011,212.42680 195.82683,212.18697 C 185.27354,211.94712 175.04006,209.46870 162.24821,209.30880 C 149.45636,209.14891 142.90053,217.06385 120.99446,212.66666 C 115.87532,211.63910 135.94495,205.39129 131.54773,201.15399 C 127.15052,196.91668 104.04523,197.23648 90.773666,188.20222 C 85.201324,184.40899 102.28635,180.36719 103.24574,172.37229" id="path3230" style="fill:none;fill-opacity:0.75000000;fill-rule:evenodd;stroke:#484c5f;stroke-width:1.8750000;stroke-linecap:butt;stroke-linejoin:round;stroke-miterlimit:4.0000000;stroke-opacity:1.0000000" transform="translate(0.000000,75.00000)"/>
    <path d="M 83.578246,229.93568 C 75.903140,226.89762 53.443848,221.12221 51.438692,217.94331 C 48.160779,212.74662 82.138432,216.72058 63.431064,207.39002 C 55.326035,203.34752 24.096090,205.23138 29.372729,201.63367 C 34.649385,198.03596 80.944643,194.47234 92.377366,189.19570 C 103.81009,183.91907 98.027290,174.57208 101.36105,166.58187" id="path3231" style="fill:none;fill-opacity:0.75000000;fill-rule:evenodd;stroke:#484c5f;stroke-width:1.8750000;stroke-linecap:butt;stroke-linejoin:round;stroke-miterlimit:4.0000000;stroke-opacity:1.0000000" transform="translate(0.000000,75.00000)"/>
    <path d="M 64.332013,228.80006 L 66.077580,245.74808 L 104.14751,265.27880 L 229.77830,242.95796 L 230.73004,234.96681 L 179.05718,213.48313 L 64.332013,228.80006 z " id="path3010" style="fill:url(#linearGradient1959);fill-opacity:1.0000000;fill-rule:evenodd;stroke:#000000;stroke-width:0.93750000;stroke-linecap:butt;stroke-linejoin:miter;stroke-miterlimit:4.0000000;stroke-opacity:1.0000000" transform="translate(0.000000,75.00000)"/>
    <path d="M 66.307606,229.92236 L 67.744591,244.37620 L 104.32654,263.26882 L 228.31443,241.39634 L 228.82570,236.08479 L 104.45435,256.06195 L 66.307606,229.92236 z " id="path3013" style="fill:#000000;fill-opacity:0.19607843;fill-rule:evenodd;stroke:none;stroke-width:0.33750001;stroke-linecap:butt;stroke-linejoin:miter;stroke-miterlimit:4.0000000;stroke-opacity:1.0000000" transform="translate(0.000000,75.00000)"/>
    <path d="M 70.980080,230.35875 L 102.40022,250.43272 C 104.29123,226.57669 218.77104,242.43223 204.51562,226.86763 L 179.20496,215.52147 L 70.980080,230.35875 z " id="path3014" style="fill:url(#linearGradient1960);fill-opacity:1.0000000;fill-rule:evenodd;stroke:none;stroke-width:0.33750001;stroke-linecap:butt;stroke-linejoin:miter;stroke-miterlimit:4.0000000;stroke-opacity:1.0000000" transform="translate(0.000000,75.00000)"/>
    <path d="M 260.74545,220.12719 C 254.28771,220.70079 248.99358,226.62915 235.69608,220.63690 C 222.73487,214.79621 223.78797,215.97811 224.46399,212.68891 C 225.05642,209.80642 229.06168,201.41171 243.93428,201.92380 C 258.72831,202.43317 267.60257,219.51810 260.74545,220.12719 z " id="path3135" style="fill:url(#linearGradient1961);fill-opacity:1.0000000;fill-rule:evenodd;stroke:#000000;stroke-width:0.93750000;stroke-linecap:butt;stroke-linejoin:miter;stroke-miterlimit:4.0000000;stroke-opacity:1.0000000" transform="translate(0.000000,75.00000)"/>
    <path d="M 183.22627,519.18774 C 183.22627,521.04166 180.40833,522.54456 176.93224,522.54456 C 173.45614,522.54456 170.63820,521.04166 170.63820,519.18774 C 170.63820,517.33382 173.45614,515.83092 176.93224,515.83092 C 180.40833,515.83092 183.22627,517.33382 183.22627,519.18774 z " id="path3233" style="fill:url(#linearGradient1962);fill-opacity:1.0000000;fill-rule:evenodd;stroke:none;stroke-width:0.19681366;stroke-linecap:butt;stroke-linejoin:miter;stroke-miterlimit:4.0000000;stroke-opacity:1.0000000" transform="matrix(1.714820,0.000000,0.000000,1.714820,-61.76929,-606.9641)"/>
  </g>
  <g id="g1909" transform="translate(0.000000,75.00000)">
    <path d="M 168.65587,72.330023 L 225.20016,76.208843 L 221.78420,198.54725 L 169.31652,206.31120 L 98.775990,189.11266 L 97.260299,80.427198 L 168.65587,72.330023 z " id="path352" style="fill:url(#linearGradient1917);fill-opacity:1.0000000;fill-rule:evenodd;stroke:#000000;stroke-width:0.93750000;stroke-linecap:butt;stroke-linejoin:round;stroke-miterlimit:4.0000000;stroke-opacity:1.0000000" transform="translate(0.000000,-75.00000)"/>
    <path d="M 102.89328,117.91922 L 103.78771,184.23132 L 163.02825,196.53147 L 162.56305,110.47038 C 143.29813,93.578327 122.78320,134.18627 102.89328,117.91922 z " id="path353" style="fill:url(#linearGradient1918);fill-opacity:1.0000000;fill-rule:evenodd;stroke:none;stroke-width:0.33750001;stroke-linecap:butt;stroke-linejoin:miter;stroke-miterlimit:4.0000000;stroke-opacity:1.0000000" transform="translate(0.000000,-75.00000)"/>
    <path d="M 100.64328,114.39526 L 101.60464,187.68673 L 165.27825,201.28147 L 164.77824,106.16243 C 144.07169,87.492480 122.02160,132.37442 100.64328,114.39526 z " id="path1853" style="fill:url(#linearGradient1919);fill-opacity:1.0000000;fill-rule:evenodd;stroke:none;stroke-width:0.33750001;stroke-linecap:butt;stroke-linejoin:miter;stroke-miterlimit:4.0000000;stroke-opacity:1.0000000" transform="translate(0.000000,-75.00000)"/>
    <path d="M 171.34995,74.897795 L 170.47718,148.07984 C 199.80839,115.49146 198.76770,162.41452 220.58724,143.69744 L 223.20555,78.025935 L 171.34995,74.897795 z " id="path2987" style="fill:url(#linearGradient1920);fill-opacity:1.0000000;fill-rule:evenodd;stroke:none;stroke-width:0.33750001;stroke-linecap:butt;stroke-linejoin:miter;stroke-miterlimit:4.0000000;stroke-opacity:1.0000000" transform="translate(0.000000,-75.00000)"/>
    <path d="M 177.48285,82.517255 L 177.04647,96.099986 L 218.00121,97.796509 L 218.02029,84.889915 L 177.48285,82.517255 z " id="path3005" style="fill:url(#linearGradient1921);fill-opacity:1.0000000;fill-rule:evenodd;stroke:#000000;stroke-width:1.2500000;stroke-linecap:butt;stroke-linejoin:bevel;stroke-miterlimit:4.0000000;stroke-opacity:0.39215687" transform="translate(0.000000,-75.00000)"/>
    <path d="M 177.47737,100.94619 L 177.04098,115.53709 L 217.59414,115.89210 L 217.58917,102.32423 L 177.47737,100.94619 z " id="path3008" style="fill:url(#linearGradient1922);fill-opacity:1.0000000;fill-rule:evenodd;stroke:#000000;stroke-width:1.2500000;stroke-linecap:butt;stroke-linejoin:bevel;stroke-miterlimit:4.0000000;stroke-opacity:0.39215687" transform="translate(0.000000,-75.00000)"/>
    <path d="M 217.50000,164.37500 C 217.50000,181.63390 209.24525,195.62500 199.06250,195.62500 C 188.87975,195.62500 180.62500,181.63390 180.62500,164.37500 C 180.62500,147.11610 188.87975,133.12500 199.06250,133.12500 C 209.24525,133.12500 217.50000,147.11610 217.50000,164.37500 z " id="path1823" style="fill:url(#linearGradient1923);fill-opacity:1.0000000;stroke:none;stroke-width:1.0000000pt;stroke-linecap:butt;stroke-linejoin:miter;stroke-opacity:1.0000000" transform="matrix(1.199500,0.000000,0.000000,1.000000,-43.46294,-75.00000)"/>
  </g>
  <g id="g1972" transform="translate(150.0000,0.000000)">
    <path d="M 68.781510,152.51618 L 57.486640,192.42874 L 57.486640,198.50488 L 81.791181,210.65716 L 118.24798,206.86790 L 118.24798,200.79176 L 85.772016,191.81631 L 93.943443,149.89580 L 68.781510,152.51618 z " id="path354" style="fill:url(#linearGradient1981);fill-opacity:1.0000000;fill-rule:evenodd;stroke:#000000;stroke-width:0.93750000;stroke-linecap:butt;stroke-linejoin:round;stroke-miterlimit:4.0000000;stroke-opacity:1.0000000" transform="translate(-150.0000,0.000000)"/>
    <path d="M 68.779090,153.94752 L 73.984790,155.47860 L 62.654730,194.36829 L 80.721596,202.63617 L 81.027811,209.06673 L 58.061460,198.04291 L 58.367680,192.22476 L 68.779090,153.94752 z " id="path355" style="fill:#000000;fill-opacity:0.31097558;fill-rule:evenodd;stroke:none;stroke-width:0.33750001;stroke-linecap:butt;stroke-linejoin:miter;stroke-miterlimit:4.0000000;stroke-opacity:1.0000000" transform="translate(-150.0000,0.000000)"/>
    <path d="M 24.299300,63.862600 L 133.66972,66.312341 L 139.74585,163.53049 L 30.375440,175.68275 L 24.299300,63.862600 z " id="path1828" style="fill:url(#linearGradient1982);fill-opacity:1.0000000;fill-rule:evenodd;stroke:url(#linearGradient1983);stroke-width:2.0000000;stroke-linecap:butt;stroke-linejoin:round;stroke-miterlimit:4.0000000;stroke-opacity:1.0000000" transform="translate(-150.0000,0.000000)"/>
    <path d="M 26.174300,63.237600 L 135.54472,65.687341 L 141.62085,162.90549 L 32.250440,175.05775 L 26.174300,63.237600 z " id="path356" style="fill:url(#linearGradient1984);fill-opacity:1.0000000;fill-rule:evenodd;stroke:#000000;stroke-width:0.93750000;stroke-linecap:butt;stroke-linejoin:round;stroke-miterlimit:4.0000000;stroke-opacity:1.0000000" transform="translate(-150.0000,0.000000)"/>
    <path d="M 35.991560,72.467003 L 41.238670,160.10315 L 132.18841,152.60794 L 128.69035,73.043542 L 35.991560,72.467003 z " id="path357" style="fill:url(#linearGradient1985);fill-opacity:1.0000000;fill-rule:evenodd;stroke:#000000;stroke-width:1.8750000;stroke-linecap:round;stroke-linejoin:round;stroke-miterlimit:4.0000000;stroke-opacity:0.19607843" transform="translate(-150.0000,0.000000)"/>
    <path d="M 64.185820,194.36829 L 84.089983,193.14341 L 112.12441,200.63026 L 82.547108,202.32994 L 64.185820,194.36829 z " id="path361" style="fill:url(#linearGradient1986);fill-opacity:1;fill-rule:evenodd;stroke:none;stroke-width:0.33750001;stroke-linecap:butt;stroke-linejoin:miter;stroke-miterlimit:4.0000000;stroke-opacity:1.0000000" transform="translate(-150.0000,0.000000)"/>
    <path d="M 41.636930,76.166830 L 44.105540,124.30449 C 56.654250,96.738482 120.42637,148.78477 126.18643,111.96151 L 124.33500,77.401123 L 41.636930,76.166830 z " id="path3003" style="fill:url(#linearGradient1871);fill-opacity:1.0000000;fill-rule:evenodd;stroke:none;stroke-width:0.33750001;stroke-linecap:butt;stroke-linejoin:miter;stroke-miterlimit:4.0000000;stroke-opacity:1.0000000" transform="translate(-150.0000,0.000000)"/>
    <rect height="1.8750000" id="rect1924" rx="6.1653080" ry="1.8750000" style="fill:none;fill-opacity:0.75000000;stroke:none;stroke-width:2.0000000;stroke-linecap:butt;stroke-linejoin:miter;stroke-miterlimit:4.0000000;stroke-opacity:1.0000000" width="6.8750000" x="-85.625000" y="33.750000"/>
  </g>
</svg>